<?xml version="1.0" encoding="UTF-8"?>
<svg width="16.563mm" height="13.227mm" version="1.1" viewBox="0 0 16.563 13.227" xmlns="http://www.w3.org/2000/svg" xmlns:cc="http://creativecommons.org/ns#" xmlns:dc="http://purl.org/dc/elements/1.1/" xmlns:rdf="http://www.w3.org/1999/02/22-rdf-syntax-ns#">
<metadata>
<rdf:RDF>
<cc:Work rdf:about="">
<dc:format>image/svg+xml</dc:format>
<dc:type rdf:resource="http://purl.org/dc/dcmitype/StillImage"/>
<dc:title/>
</cc:Work>
</rdf:RDF>
</metadata>
<g transform="translate(-64.496 -111.52)">
<path d="m72.965 124.75c-3.3336 0.0349-6.0858-2.5293-6.4908-5.8326l-1.2305 1.2565-0.74855-0.73303 2.4609-2.513 2.513 2.4609-0.73304 0.74855-1.1763-1.1519c0.42511 2.6944 2.6956 4.7345 5.3942 4.7063 2.3811-0.0249 4.4281-1.634 5.1178-3.9961l1.0084 0.2805c-0.81697 2.8398-3.2578 4.744-6.1151 4.7739zm5.6587-5.4041-2.513-2.4609 0.73304-0.74855 1.1763 1.1519c-0.42511-2.6944-2.6956-4.7345-5.3942-4.7063-2.3811 0.0249-4.4281 1.634-5.1178 3.9961l-1.0084-0.2805c0.81697-2.8398 3.2578-4.744 6.1151-4.7739 3.3071-0.0346 6.0858 2.5293 6.4644 5.8328l1.2305-1.2565 0.74855 0.73303z" stroke-width=".26458"/>
<polygon transform="matrix(.1703 .00078478 -.00078478 .1703 67.325 111.6)" points="10.2 38 20.6 48.4 23.4 45.6 15.8 38 23.4 30.4 20.6 27.6"/>
<polygon transform="matrix(.1703 .00078478 -.00078478 .1703 67.325 111.6)" points="48.2 38 40.6 45.6 43.4 48.4 53.8 38 43.4 27.6 40.6 30.4"/>
<rect transform="rotate(200.59)" x="-109.94" y="-87.349" width=".68116" height="4.9044" stroke-width=".17029"/>
<path d="m71.808 124.63c-2.6166-0.49473-4.6723-2.5412-5.2134-5.1898-0.05709-0.27949-0.11318-0.51753-0.12463-0.52898-0.01146-0.0115-0.28866 0.25329-0.61602 0.5883l-0.59521 0.60912-0.14108-0.10197c-0.0776-0.0561-0.24035-0.20512-0.36167-0.33118l-0.22059-0.22919 2.4108-2.4832 2.5001 2.4294-0.35516 0.3579-0.35516 0.3579-0.56824-0.56648c-0.31253-0.31156-0.58309-0.55163-0.60124-0.53348-0.01815 0.0181 0.01498 0.22267 0.07358 0.45449 0.44452 1.7578 1.5779 3.1083 3.2194 3.8361 1.36 0.60296 3.1245 0.52349 4.5017-0.20275 1.2017-0.63368 2.2181-1.8244 2.6298-3.081 0.05007-0.15279 0.10546-0.27781 0.12309-0.27781 0.08784 0 0.8389 0.22794 0.88027 0.26716 0.06487 0.0615-0.13323 0.59603-0.45333 1.2232-0.84131 1.6484-2.3043 2.8251-4.1087 3.3045-0.65736 0.17467-1.9608 0.22325-2.6243 0.0978z" stroke-width=".052917"/>
</g>
</svg>
